<?xml version="1.0" standalone="no"?><!DOCTYPE svg PUBLIC "-//W3C//DTD SVG 1.1//EN" "http://www.w3.org/Graphics/SVG/1.1/DTD/svg11.dtd"><svg t="1724128088782" class="icon" viewBox="0 0 1024 1024" version="1.1" xmlns="http://www.w3.org/2000/svg" p-id="1846" xmlns:xlink="http://www.w3.org/1999/xlink" width="200" height="200"><path d="M907.17 356.38L927 159.56l-62.6-60.18-234.92 15.93L434.19 97H127.51L97 222.11l15.26 221.23L97 615.75v286.84L228.21 927l302.1-16.78L757.64 927h132.74L927 866l-12.21-126.67L927 603.54z" fill="#3F4F61" p-id="1847"></path><path d="M127.52 97l27.46 109.85-42.72 236.49L97 222.11M104.17 534.71l21.82 297.69L228.21 927 97 902.59V615.75M348.75 97l109.85 44.25 256.24-31.73" fill="#64717E" p-id="1848"></path><path d="M523.55 910.59l288.51-9.53L890.38 927H757.64M907.16 356.38l-8.13 205.97v199.87L927 865.97V483.01l-11.15-212.84" fill="#303B4F" p-id="1849"></path><path d="M622.04 907.34L449.36 766.79l27.04-237.97 132.1-329.65L903.06 460.2l-4.03 146.24L927 865.97 890.38 927l-78.32-25.94-190.02 6.28z" fill="#1F2C39" p-id="1850"></path><path d="M666.78 560.25l28.6-31.78-51.23-130.77 20.18-13.11-55.83-185.42-132.67 141.06 18.25 30.96-69.12 73.5 13.35 35.72 46.46-17.19 1.74 0.54-146.37 50.57-22.07 141.56 131.29 110.9 158.86-9.89 91.32-130.35-32.76-66.3z" fill="#EAD696" p-id="1851"></path><path d="M480.44 562.3c37.79 43.16 57.29 129 57.29 129s-129 26-166.78-17.12-36.79-121.89-9.09-146.14 80.79-8.9 118.58 34.26z" fill="#C6A458" p-id="1852"></path><path d="M480.77 563.27a157 157 0 0 0-23.4-21.86 31.93 31.93 0 0 0-12.74 4.08c-24.2 14-24.73 58.35-1.17 98.93s50.89 45.29 86.49 48.07a15 15 0 0 0 7.84-1.38c-2.46-10.29-21.79-87.62-57.02-127.84z" fill="#B5924B" p-id="1853"></path><path d="M608.5 199.17l10.4 174.73-143.07-33.67 18.25 30.96 127.16 42 43.09-28.6-55.83-185.42zM654.83 424.96l-11.18 87.48-218.69-67.75 13.35 35.72 194.34 118.16 62.73-70.1-40.55-103.51zM676.97 580.88l-15.82 67.19-211.79 118.72 158.86-9.89 91.32-130.35-22.57-45.67z" fill="#C6A458" p-id="1854"></path></svg>